<?xml version="1.0" encoding="UTF-8" standalone="no"?>
<!-- Created with Inkscape (http://www.inkscape.org/) -->

<svg
   width="210mm"
   height="297mm"
   viewBox="0 0 210 297"
   version="1.1"
   id="svg1"
   xml:space="preserve"
   inkscape:version="1.4.2 (ebf0e940d0, 2025-05-08)"
   sodipodi:docname="head.svg"
   xmlns:inkscape="http://www.inkscape.org/namespaces/inkscape"
   xmlns:sodipodi="http://sodipodi.sourceforge.net/DTD/sodipodi-0.dtd"
   xmlns="http://www.w3.org/2000/svg"
   xmlns:svg="http://www.w3.org/2000/svg"><sodipodi:namedview
     id="namedview1"
     pagecolor="#505050"
     bordercolor="#eeeeee"
     borderopacity="1"
     inkscape:showpageshadow="0"
     inkscape:pageopacity="0"
     inkscape:pagecheckerboard="0"
     inkscape:deskcolor="#505050"
     inkscape:document-units="mm"
     inkscape:zoom="0.9146273"
     inkscape:cx="262.40196"
     inkscape:cy="697.55189"
     inkscape:window-width="1886"
     inkscape:window-height="981"
     inkscape:window-x="0"
     inkscape:window-y="0"
     inkscape:window-maximized="0"
     inkscape:current-layer="layer1" /><defs
     id="defs1" /><g
     inkscape:label="Layer 1"
     inkscape:groupmode="layer"
     id="layer1"><path
       style="fill:#000000"
       d="m 100.17666,239.27378 c 0.20849,-2.09235 -0.306915,-5.85808 -1.391208,-10.16472 -1.432685,-5.69039 -2.675661,-9.30693 -3.52569,-10.25828 -0.670804,-0.75076 -0.882544,-0.82848 -2.164162,-0.79438 -0.950742,0.0253 -2.558254,0.4476 -4.860193,1.27677 -6.438613,2.31924 -12.039348,3.82277 -14.240039,3.82277 -2.314656,0 -2.601269,-0.32533 -5.477832,-6.21771 -5.535964,-11.33993 -11.397292,-25.64714 -11.360392,-27.73016 0.0077,-0.43338 0.357478,-0.74768 1.38198,-1.24171 2.099236,-1.01229 4.486607,-3.50085 5.202012,-5.42251 1.148957,-3.08622 1.234178,-5.14617 0.526727,-12.73196 -0.824835,-8.84446 -0.829644,-14.41243 -0.01603,-18.5579 2.309415,-11.76676 9.083169,-21.81036 19.32678,-28.65623 19.586547,-13.08984 46.399557,-10.6444 62.825087,5.72987 5.95731,5.93872 10.36922,13.84323 12.04581,21.58166 2.62974,12.13773 0.0794,24.3012 -7.26754,34.66197 -0.9496,1.33913 -4.32872,5.00868 -8.60835,9.34822 -3.87481,3.92906 -7.42187,7.73906 -7.88235,8.46667 -0.46048,0.7276 -1.08766,2.14522 -1.39375,3.15026 -0.50047,1.64333 -0.53987,2.22948 -0.39119,5.82083 0.25427,6.14238 1.46983,11.28375 3.78989,16.02991 0.83832,1.71495 0.94568,2.06204 0.45077,1.45733 -0.99404,-1.21457 -2.64758,-4.82628 -3.40287,-7.43263 -1.49781,-5.16861 -2.10683,-12.08172 -1.34739,-15.29428 0.83355,-3.52599 1.51536,-4.42879 9.41212,-12.46267 7.60749,-7.73959 9.48696,-10.03845 11.97546,-14.64775 1.67774,-3.10759 3.15915,-7.11833 4.06919,-11.01683 0.68209,-2.92203 0.74183,-3.60717 0.74974,-8.59896 0.01,-6.09817 -0.2776,-8.08451 -1.89407,-13.09688 -3.72331,-11.54437 -12.43616,-21.26096 -23.94995,-26.70812 -13.87594,-6.56469 -29.89044,-6.36883 -43.664638,0.53403 -11.415538,5.72083 -20.166516,16.18158 -23.347834,27.90956 -1.578907,5.82067 -1.806899,10.71464 -0.923758,19.82898 0.577037,5.95525 0.670476,10.53051 0.259978,12.73004 -0.608292,3.25935 -2.71345,6.08178 -5.850225,7.84351 -0.710375,0.39898 -1.291711,0.89355 -1.291859,1.09906 -0.0018,2.5421 12.225832,30.81132 14.03284,32.44263 0.808284,0.72969 3.102589,0.64087 6.57882,-0.25467 10.602587,-2.73144 22.037736,-8.26886 27.592106,-13.36136 2.17057,-1.99007 3.28393,-3.48321 4.98073,-6.6797 1.54839,-2.91689 1.68432,-2.93632 0.37031,-0.0529 -2.69802,5.92042 -6.62383,9.55104 -15.034014,13.90359 -2.812901,1.45576 -3.308893,1.79395 -2.639554,1.79976 2.197697,0.0191 3.32159,2.29233 5.562944,11.25195 1.028834,4.11267 1.472194,9.47843 0.929134,11.24479 -0.25797,0.83906 -0.27088,0.78732 -0.13754,-0.55091 z m 13.98791,-42.03326 c -0.37437,-0.17331 -0.17689,-0.20274 0.67506,-0.1006 2.88266,0.3456 6.74952,-1.4003 9.76975,-4.41106 4.37248,-4.35879 6.1616,-9.99357 4.53648,-14.2875 -1.18336,-3.1267 -3.18898,-4.60979 -6.25004,-4.6217 -2.22459,-0.009 -3.65856,0.60525 -5.74611,2.46001 l -1.39073,1.23565 0.88317,-1.13016 c 0.98716,-1.26322 2.62153,-2.46656 3.97805,-2.92892 1.47697,-0.50342 4.10355,-0.3828 5.4504,0.25029 3.28477,1.54403 5.07074,6.28262 4.11075,10.90683 -0.67863,3.26894 -3.4367,7.58072 -6.29551,9.84197 -2.577,2.03835 -4.52675,2.85587 -7.03455,2.94956 -1.18665,0.0443 -2.39567,-0.0296 -2.68672,-0.16437 z"
       id="path1"
       sodipodi:nodetypes="cssssssssssssssssssssssssssccsssssssssssssssscccssscscssssssc" /></g></svg>
