<?xml version="1.0" encoding="UTF-8" standalone="no"?>
<svg
   id="Vrstva_2"
   data-name="Vrstva 2"
   viewBox="0 0 15.85 13.43"
   version="1.1"
   sodipodi:docname="home.svg"
   inkscape:version="1.4.2 (ebf0e940d0, 2025-05-08)"
   xmlns:inkscape="http://www.inkscape.org/namespaces/inkscape"
   xmlns:sodipodi="http://sodipodi.sourceforge.net/DTD/sodipodi-0.dtd"
   xmlns="http://www.w3.org/2000/svg"
   xmlns:svg="http://www.w3.org/2000/svg">
  <sodipodi:namedview
     id="namedview1"
     pagecolor="#505050"
     bordercolor="#eeeeee"
     borderopacity="1"
     inkscape:showpageshadow="0"
     inkscape:pageopacity="0"
     inkscape:pagecheckerboard="0"
     inkscape:deskcolor="#505050"
     inkscape:zoom="22.839116"
     inkscape:cx="7.9031079"
     inkscape:cy="6.7209256"
     inkscape:window-width="1920"
     inkscape:window-height="1080"
     inkscape:window-x="0"
     inkscape:window-y="0"
     inkscape:window-maximized="0"
     inkscape:current-layer="Vrstva_2" />
  <defs
     id="defs1">
    <style
       id="style1">
      .cls-1 {
        fill: #fff;
      }
    </style>
  </defs>
  <path
     d="M 1.950095,5.7496754 A 1.2859603,1.2859603 0 0 1 2.4059665,4.76721 l 4.500863,-3.85788111 a 1.2859603,1.2859603 0 0 1 1.6601747,0 L 13.067865,4.76721 a 1.2859603,1.2859603 0 0 1 0.455873,0.9824654 v 5.7868226 a 1.2859603,1.2859603 0 0 1 -1.28596,1.285968 H 3.2360537 A 1.2859603,1.2859603 0 0 1 1.950095,11.536498 Z"
     id="path2"
     style="fill:none;stroke:#ffffff;stroke-width:1.21507;stroke-dasharray:none" />
  <g
     id="g9"
     transform="matrix(0.64298017,0,0,0.64298017,3.7356875,2.8892787)">
    <path
       class="cls-1"
       d="M 0.88,8.01 0.46,8.2 C 0.18,8.33 0.05,8.66 0.18,8.94 0.27,9.15 0.48,9.27 0.69,9.27 0.77,9.27 0.84,9.25 0.92,9.22 L 1.34,9.03 C 1.62,8.9 1.75,8.57 1.62,8.29 1.49,8.01 1.16,7.88 0.88,8.01 Z"
       id="path1"
       style="fill:#ffffff" />
    <path
       class="cls-1"
       d="M 0.36,4.59 0.79,4.76 C 0.86,4.79 0.92,4.8 0.99,4.8 1.22,4.8 1.43,4.66 1.51,4.44 1.62,4.15 1.48,3.83 1.19,3.71 L 0.76,3.54 C 0.47,3.43 0.15,3.57 0.03,3.86 -0.09,4.15 0.06,4.47 0.35,4.59 Z"
       id="path2-6"
       style="fill:#ffffff" />
    <path
       class="cls-1"
       d="M 3.44,1.34 C 3.53,1.55 3.74,1.67 3.95,1.67 4.03,1.67 4.1,1.65 4.18,1.62 4.46,1.49 4.59,1.16 4.46,0.88 L 4.27,0.46 C 4.14,0.18 3.81,0.05 3.53,0.18 3.25,0.31 3.12,0.64 3.25,0.92 Z"
       id="path3"
       style="fill:#ffffff" />
    <path
       class="cls-1"
       d="m 8.04,1.52 c 0.07,0.03 0.13,0.04 0.2,0.04 0.23,0 0.44,-0.14 0.52,-0.36 L 8.93,0.77 C 9.04,0.48 8.9,0.16 8.61,0.04 8.32,-0.07 8,0.07 7.88,0.36 L 7.71,0.79 C 7.6,1.08 7.74,1.4 8.03,1.52 Z"
       id="path4"
       style="fill:#ffffff" />
    <path
       class="cls-1"
       d="m 11.36,4.51 c 0.08,0 0.15,-0.02 0.23,-0.05 L 12.01,4.27 C 12.29,4.14 12.42,3.81 12.29,3.53 12.16,3.25 11.83,3.12 11.55,3.25 l -0.42,0.19 c -0.28,0.13 -0.41,0.46 -0.28,0.74 0.09,0.21 0.3,0.33 0.51,0.33 z"
       id="path5"
       style="fill:#ffffff" />
    <path
       class="cls-1"
       d="M 12.11,7.89 11.68,7.72 c -0.29,-0.11 -0.61,0.03 -0.73,0.32 -0.11,0.29 0.03,0.61 0.32,0.73 l 0.43,0.17 c 0.07,0.03 0.13,0.04 0.2,0.04 0.23,0 0.44,-0.14 0.52,-0.36 C 12.53,8.33 12.39,8.01 12.1,7.89 Z"
       id="path6"
       style="fill:#ffffff" />
    <path
       class="cls-1"
       d="m 3.14,3.19 c -1.62,1.62 -1.62,4.25 0,5.87 L 3.3,9.22 H 8.84 L 9,9.06 C 9.78,8.28 10.22,7.23 10.22,6.13 10.22,5.03 9.79,3.98 9,3.2 7.43,1.63 4.7,1.63 3.13,3.2 Z M 5.63,6.8 C 5.63,7.11 5.38,7.36 5.07,7.36 4.76,7.36 4.51,7.11 4.51,6.8 V 5.22 c 0,-0.31 0.25,-0.56 0.56,-0.56 0.31,0 0.56,0.25 0.56,0.56 z m 2.01,0 C 7.64,7.11 7.39,7.36 7.08,7.36 6.77,7.36 6.52,7.11 6.52,6.8 V 5.22 c 0,-0.31 0.25,-0.56 0.56,-0.56 0.31,0 0.56,0.25 0.56,0.56 z"
       id="path7"
       style="fill:#ffffff" />
    <rect
       class="cls-1"
       x="3.6300001"
       y="9.7799997"
       width="4.8800001"
       height="1.67"
       id="rect7"
       style="fill:#ffffff" />
    <path
       class="cls-1"
       d="m 6.07,13.43 c 0.83,0 1.49,-0.67 1.49,-1.49 H 4.57 c 0,0.83 0.67,1.49 1.49,1.49 z"
       id="path8"
       style="fill:#ffffff" />
  </g>
</svg>
